<svg xmlns="http://www.w3.org/2000/svg" width="1000" height="335">
    <path fill="#F89A52" stroke-width="0.1%" stroke="#F89A52" d="M 150 200 l -48.81 -10.82 A 50 50 0 0 1 171.918557339453873 155.06029768504163 z"/>
  <path fill="#F9A453" stroke-width="0.1%" stroke="#F9A453" d="M 150 200 l -48.81 -10.82 A 50 50 0 0 0 150 250 z"/>
  <path fill="#F7B051" stroke-width="0.1%" stroke="#F7B051" d="M 150 200 L 171.918557339453873 155.06029768504163 A 50 50 0 0 1 188.85729807284855 231.46601955249187 z"/>
  <path fill="#F68A45" stroke-width="0.1%" stroke="#F68A45" d="M 150 200 L 150 250 A 50 50 0 0 0 188.85729807284855 231.46601955249187 z"/>
  <path fill="#EC853D" stroke-width="0.1%" stroke="#EC853D" d="M 188.85729807284855 231.46601955249187 A 50 50 0 0 1 150 250 L 150 292 A 92 92 0 0 0 221.4974284540413 257.89747597658504 z"/>
  <path fill="#F7B427" stroke-width="0.1%" stroke="#F7B427" d="M 221.4974284540413 257.89747597658504 A 92 92 0 0 0 190.33014550459512 117.31094774047664 L 198.6591972935876 100.23386086079246 A 111 111 0 0 1 236.26320172172376 269.85456340653195 z"/>
  <path fill="#F99E2E" stroke-width="0.1%" stroke="#F99E2E" d="M 190.33014550459512 117.31094774047664 A 92 92 0 0 0 60.18076734496613 180.08755551769454 L 41.631143209687394 175.9752028528706 A 111 111 0 0 1 198.6591972935876 100.23386086079246 z"/>
  <path fill="#F68933" stroke-width="0.1%" stroke="#F68933" d="M 60.18076734496613 180.08755551769454 A 92 92 0 0 0 150 292 L 150 311 A 111 111 0 0 1 41.631143209687394 175.9752028528706 z"/>
  <path fill="#F4A420" stroke-width="0.1%" stroke="#F4A420" d="M 236.26320172172376 269.85456340653195 A 111 111 0 0 0 198.6591972935876 100.23386086079246 L 207.42662022936915 82.25797993480911 A 131 131 0 0 1 251.8061209508632 282.4409712275287 z"/>
  <path fill="#F68C21" stroke-width="0.1%" stroke="#F68C21" d="M 198.6591972935876 100.23386086079246 A 111 111 0 0 0 41.631143209687394 175.9752028528706 L 3.5555989320099854 167.5340579092846 A 150 150 0 0 1 85.42333547875572 64.61220734752092 L 93.60304631811331 81.76132775016828 A 131 131 0 0 1 207.42662022936915 82.25797993480911 z" />
  <path fill="#F47323" stroke-width="0.1%" stroke="#F47323" d="M 41.631143209687394 175.9752028528706 A 111 111 0 0 0 150 311 L 150 331 A 131 131 0 0 1 48.19387904913681 282.4409712275287 L 33.42810578145436 294.3980586574756 A 150 150 0 0 1 3.5555989320099854 167.5340579092846 z"/>

  <g fill="#fff" transform="translate(0.000000,355.000000) scale(0.100000,-0.100000)" stroke="none">
<path d="M4980 1880 l0 -1160 120 0 120 0 0 1160 0 1160 -120 0 -120 0 0 -1160z"/>
<path d="M3735 2373 c-80 -11 -190 -48 -243 -83 -103 -66 -165 -163 -205 -318 -21 -81 -22 -108 -22 -422 0 -363 3 -392 57 -533 57 -150 179 -247 350 -282 106 -21 542 -21 642 0 97 21 187 65 249 124 95 90 137 211 137 399 l0 102 -109 0 -108 0 -6 -102 c-16 -292 -109 -348 -555 -336 -151 4 -185 8 -234 27 -113 44 -174 146 -199 329 -17 124 -6 558 15 642 29 113 81 180 171 222 48 22 59 23 315 23 227 0 272 -3 315 -18 114 -39 165 -115 173 -258 l5 -89 110 0 110 0 -5 103 c-13 266 -149 414 -424 462 -81 14 -453 20 -539 8z"/>
<path d="M8951 2365 c-211 -47 -336 -175 -394 -403 -21 -81 -22 -108 -22 -422 0 -312 2 -341 22 -422 58 -228 170 -341 381 -383 117 -24 584 -17 682 10 153 42 264 126 317 240 23 50 28 77 31 163 l4 102 -110 0 -109 0 -5 -75 c-9 -138 -82 -213 -234 -240 -93 -17 -389 -20 -484 -5 -88 14 -166 55 -207 108 -51 67 -65 127 -70 305 l-5 157 611 0 611 0 0 213 c0 158 -4 228 -15 272 -49 192 -173 316 -370 371 -84 24 -539 30 -634 9z m620 -223 c66 -26 115 -71 141 -129 21 -47 37 -156 38 -250 l0 -63 -500 0 -500 0 0 43 c1 66 19 188 35 238 30 90 111 157 216 179 24 5 150 8 279 6 215 -2 240 -4 291 -24z"/>
<path d="M5823 2355 c-188 -41 -297 -160 -310 -341 l-6 -74 122 0 121 0 0 43 c0 68 36 127 95 157 49 25 53 25 320 28 315 4 369 -4 435 -67 58 -56 70 -109 70 -323 0 -98 -3 -178 -6 -178 -4 0 -23 15 -44 34 -47 42 -130 74 -232 87 -116 16 -528 6 -597 -14 -167 -49 -265 -146 -306 -304 -18 -68 -20 -268 -4 -345 26 -124 112 -233 223 -284 106 -48 175 -56 476 -52 252 4 281 6 343 27 42 14 83 36 108 58 l39 35 0 -61 0 -61 120 0 121 0 -3 663 -3 662 -23 58 c-50 123 -175 220 -327 252 -95 20 -640 20 -732 0z m642 -849 c101 -27 164 -80 186 -158 17 -58 17 -182 0 -241 -20 -67 -79 -131 -149 -159 -54 -21 -70 -23 -312 -23 -220 0 -263 3 -315 18 -115 36 -175 130 -175 273 0 170 62 261 197 293 63 15 510 13 568 -3z"/>
<path d="M7046 2303 c13 -38 152 -408 307 -823 l283 -755 140 -3 139 -3 290 778 c159 428 297 800 307 826 l18 48 -127 -3 -126 -3 -242 -642 c-134 -353 -246 -650 -250 -660 -10 -24 8 -67 -272 674 l-238 633 -127 0 -128 0 26 -67z"/>
</g></svg>