<?xml version="1.0" encoding="utf-8"?>
<!-- Generator: Adobe Illustrator 15.1.0, SVG Export Plug-In . SVG Version: 6.00 Build 0)  -->
<!DOCTYPE svg PUBLIC "-//W3C//DTD SVG 1.1//EN" "http://www.w3.org/Graphics/SVG/1.1/DTD/svg11.dtd">
<svg version="1.1"
   id="Layer_1" xmlns:rdf="http://www.w3.org/1999/02/22-rdf-syntax-ns#" xmlns:cc="http://creativecommons.org/ns#" xmlns:dc="http://purl.org/dc/elements/1.1/"
   xmlns="http://www.w3.org/2000/svg" xmlns:xlink="http://www.w3.org/1999/xlink"
   viewBox="0 0 220 50" enable-background="new 0 0 220 50" xml:space="preserve">
<g>
  <g id="g3315">
    <path id="path3317" fill="#1F1949" d="M71.868,13.541c-4.847,0-7.778,2.184-7.778,8.148v3.239c0,5.964,2.931,8.177,7.778,8.177
      c4.846,0,7.778-2.213,7.778-8.177v-3.239C79.646,15.725,76.714,13.541,71.868,13.541L71.868,13.541z M75.997,24.93
      c0,3.718-1.662,4.777-4.129,4.777c-2.467,0-4.146-1.325-4.146-4.777v-3.24c0-3.449,1.726-4.801,4.192-4.801
      c2.468,0,4.083,1.308,4.083,4.801V24.93z"/>
    <path id="path3319" fill="#1F1949" d="M114.95,13.837h-6.831c0,0-0.273-0.001-0.273,0.275v18.512c0,0.295,0.273,0.271,0.273,0.271
      h3.268c0,0,0.271,0.008,0.271-0.271v-7.077c0-0.285,0.271-0.271,0.271-0.271h3.647c3.411,0,5.636-2.518,5.636-5.895
      C121.216,16.085,118.393,13.837,114.95,13.837z M114.729,22.186h-2.797c0,0-0.271,0.025-0.271-0.269v-4.936
      c0-0.294,0.271-0.271,0.271-0.271h2.797c1.565,0,2.881,1.145,2.881,2.643C117.607,20.96,116.294,22.186,114.729,22.186z"/>
    <path id="path3321" fill="#1F1949" d="M100.75,13.835H82.893c0,0-0.272-0.001-0.272,0.272v18.512c0,0.277,0.272,0.271,0.272,0.271
      h3.267c0,0,0.272,0.027,0.272-0.271c0-0.301-0.006-15.165-0.006-15.165h4.691c0.309,0,0.278,0.271,0.278,0.271v14.893
      c0,0.297,0.281,0.271,0.281,0.271h3.267c0,0,0.272,0.021,0.272-0.271V17.453h4.698c0.304,0,0.274,0.271,0.274,0.271v14.893
      c0,0.292,0.273,0.271,0.273,0.271h3.266c0,0,0.272,0.025,0.272-0.271V16.416c0.001-0.917-0.229-2.548-3.246-2.581H100.75z"/>
    <path id="path3323" fill="#1F1949" d="M149.49,29.627h-8.092c0,0-0.272-0.014-0.272-0.271V25c0-0.279,0.272-0.271,0.272-0.271
      h6.726c0.272,0,0.272-0.271,0.272-0.271v-2.723c0,0,0.002-0.271-0.272-0.271h-6.726c0,0-0.272,0.012-0.272-0.272V17.38
      c0-0.282,0.271-0.27,0.271-0.27h8.097c0.293,0,0.271-0.275,0.271-0.275V14.11l-0.271-0.271c-0.304,0-11.902-0.001-11.902-0.001
      s-0.272-0.025-0.272,0.274v18.511c0,0.29,0.272,0.271,0.272,0.271h11.902c0.274,0,0.271-0.271,0.271-0.271V29.9
      C149.762,29.898,149.773,29.627,149.49,29.627L149.49,29.627z"/>
    <path id="path3325" fill="#1F1949" d="M152.221,13.836c0,0-0.318-0.037-0.318,0.273v2.722c0,0.277,0.275,0.274,0.275,0.274h4.262
      c0.308,0,0.272,0.274,0.272,0.274v15.245c0,0.287,0.272,0.271,0.272,0.271h3.029c0,0,0.336,0.037,0.336-0.271V17.374
      c0,0-0.021-0.271,0.271-0.271h4.304c0.309,0,0.271-0.272,0.271-0.272v-2.722c0,0-0.006-0.272-0.271-0.272
      C164.658,13.836,152.221,13.836,152.221,13.836L152.221,13.836z"/>
    <path id="path3327" fill="#1F1949" d="M180.189,13.836h-12.703c0,0-0.318-0.024-0.318,0.273v2.722
      c0,0.291,0.273,0.274,0.273,0.274h4.263c0.305,0,0.274,0.274,0.274,0.274v15.245c0,0.271,0.271,0.271,0.271,0.271h3.05
      c0,0,0.316,0.037,0.316-0.271V17.374c0,0-0.043-0.271,0.271-0.271h4.303c0.281,0,0.271-0.272,0.271-0.272v-2.722
      C180.461,14.108,180.469,13.836,180.189,13.836z"/>
    <path id="path3329" fill="#1F1949" d="M63.349,13.835h-4.016c-0.35,0-0.539,0.27-0.539,0.27l-7.046,7.897v-7.895
      c0-0.288-0.272-0.272-0.272-0.272H48.21c0,0-0.273-0.031-0.273,0.272v18.512c0,0.299,0.273,0.271,0.273,0.271h3.266
      c0,0,0.278,0.01,0.278-0.271v-8.684l7.217,8.686c0,0,0.185,0.27,0.548,0.27h3.831c0.414,0,0.23-0.252,0.23-0.252l-8.315-9.819
      l8.311-8.723C63.575,14.097,63.846,13.835,63.349,13.835z"/>
    <path id="path3331" fill="#1F1949" d="M127.609,29.626c0,0-0.271,0.003-0.271-0.272V14.108c0-0.292-0.271-0.272-0.271-0.272H123.8
      c0,0-0.272-0.025-0.272,0.272v18.515c0,0.27,0.272,0.27,0.272,0.27h10.755c0.299,0,0.273-0.271,0.273-0.271v-2.724
      c0,0-0.021-0.271-0.277-0.271s-6.943-0.001-6.943-0.001H127.609L127.609,29.626z"/>
  </g>
  <g id="g3333">
    <path id="path3335" fill="#1F1949" d="M185.95,12.54c1.626,0,2.927,1.301,2.927,2.927c0,1.627-1.301,2.928-2.927,2.928
      c-1.628,0-2.929-1.301-2.929-2.928C183.021,13.841,184.322,12.54,185.95,12.54z M185.95,17.745c1.301,0,2.276-0.977,2.276-2.278
      c0-1.301-0.979-2.276-2.276-2.276c-1.3,0-2.277,0.976-2.277,2.276C183.673,16.767,184.648,17.745,185.95,17.745z M187.413,16.605
      v0.407l-0.081,0.082h-0.244l-0.162-0.082l-0.895-1.139l-0.162-0.081h-0.489l-0.08,0.081v1.139l-0.082,0.082h-0.487l-0.08-0.082
      v-3.091l0.08-0.081h1.627c0.65,0,1.059,0.325,1.059,0.976c0,0.407-0.162,0.732-0.648,0.895v0.082L187.413,16.605L187.413,16.605z
       M186.355,14.41h-0.979l-0.08,0.081v0.65l0.08,0.082h0.979c0.244,0,0.406-0.163,0.406-0.407S186.602,14.41,186.355,14.41z"/>
  </g>
  <g id="g3337">
    <path id="path3339" fill="#F6B819" d="M203.18,32.889h-2.229l-0.28-0.279v-8.08c0-1.395-0.276-3.342-2.784-3.342
      c-2.509,0-3.625,1.393-3.625,4.737v6.688l-0.277,0.279h-2.229l-0.277-0.279V19.235l0.277-0.279h1.951l0.275,0.279l0.279,1.115
      h0.278c0,0,1.112-1.672,3.622-1.672c3.898,0,5.294,2.508,5.294,5.851v8.081L203.18,32.889z"/>
    <path id="path3341" fill="#F6B819" d="M212.38,18.677c4.179,0,6.688,2.787,6.688,7.245c0,4.459-2.51,7.246-6.688,7.246
      c-4.18,0-6.688-2.787-6.688-7.246C205.693,21.464,208.2,18.677,212.38,18.677z M212.38,30.66c2.509,0,3.899-1.672,3.899-4.738
      c0-3.064-1.393-4.737-3.899-4.737c-2.506,0-3.901,1.672-3.901,4.737C208.479,28.988,209.872,30.66,212.38,30.66z"/>
  </g>
  <path id="path3343" fill="#F6B819" d="M187.37,32.889h-2.788l-0.279-0.279v-2.787l0.279-0.277h2.788l0.278,0.277v2.787
    L187.37,32.889z"/>
  <polygon id="polygon3345" fill="#F6B819" points="38.381,33.316 29.128,17.29 29.128,17.29 38.381,11.948 19.876,1.264
    1.37,11.948 1.37,33.316 19.876,44   "/>

    <linearGradient id="tomas_tormod_kenneth_marius_thomas_jo_mehmet_thanks_you_for_looking_1_" gradientUnits="userSpaceOnUse" x1="1120.9463" y1="-813.0396" x2="1127.7374" y2="-798.7714" gradientTransform="matrix(1 0 0 -1 -1117.1992 -781.3047)">
    <stop  offset="0" style="stop-color:#B77A05"/>
    <stop  offset="0.2185" style="stop-color:#C18106"/>
    <stop  offset="0.5898" style="stop-color:#DB9408"/>
    <stop  offset="1" style="stop-color:#ECA50A"/>
  </linearGradient>

    <polygon id="tomas_tormod_kenneth_marius_thomas_jo_mehmet_thanks_you_for_looking" fill="url(#tomas_tormod_kenneth_marius_thomas_jo_mehmet_thanks_you_for_looking_1_)" points="
    1.37,11.948 1.37,33.316 19.876,22.632   "/>

    <linearGradient id="komplett_webteam_is_1337_1_" gradientUnits="userSpaceOnUse" x1="1136.7998" y1="-804.6436" x2="1146.8982" y2="-819.6962" gradientTransform="matrix(1 0 0 -1 -1117.1992 -781.3047)">
    <stop  offset="0" style="stop-color:#B87A05"/>
    <stop  offset="0.2305" style="stop-color:#D08C07"/>
    <stop  offset="0.52" style="stop-color:#EBA40A"/>
    <stop  offset="1" style="stop-color:#F6B819"/>
  </linearGradient>
  <polygon id="komplett_webteam_is_1337" fill="url(#komplett_webteam_is_1337_1_)" points="19.876,44 10.623,27.975 29.128,17.29
    38.381,33.316   "/>
  <g enable-background="new    ">
    <path fill="#1F1949" d="M52.577,42.871h-0.688l-0.086-0.086v-2.496l-0.086-0.086h-2.84l-0.086,0.086v2.496l-0.086,0.086h-0.688
      l-0.086-0.086v-5.852l0.086-0.086h0.688l0.086,0.086v2.41l0.086,0.086h2.84l0.086-0.086v-2.41l0.086-0.086h0.688l0.086,0.086
      v5.852L52.577,42.871z"/>
    <path fill="#1F1949" d="M57.994,42.871h-3.873l-0.086-0.086v-5.852l0.086-0.086h3.873l0.086,0.086v0.602l-0.086,0.086h-3.012
      l-0.086,0.086v1.637l0.086,0.086h2.84l0.086,0.086v0.602l-0.086,0.086h-2.84l-0.086,0.086v1.723l0.086,0.086h3.012l0.086,0.086
      v0.602L57.994,42.871z"/>
    <path fill="#1F1949" d="M63.067,42.871h-3.701l-0.086-0.086v-5.852l0.086-0.086h0.688l0.086,0.086v5.078l0.086,0.086h2.84
      l0.086,0.086v0.602L63.067,42.871z"/>
    <path fill="#1F1949" d="M67.883,42.871h-3.873l-0.086-0.086v-5.852l0.086-0.086h3.873l0.086,0.086v0.602l-0.086,0.086h-3.012
      l-0.086,0.086v1.637l0.086,0.086h2.84l0.086,0.086v0.602l-0.086,0.086h-2.84l-0.086,0.086v1.723l0.086,0.086h3.012l0.086,0.086
      v0.602L67.883,42.871z"/>
    <path fill="#1F1949" d="M76.226,42.871h-0.774l-0.172-0.086l-2.926-4.475h-0.086v4.475l-0.086,0.086h-0.688l-0.086-0.086v-5.852
      l0.086-0.086h0.774l0.172,0.086l2.926,4.475h0.086v-4.475l0.086-0.086h0.688l0.086,0.086v5.852L76.226,42.871z"/>
    <path fill="#1F1949" d="M80.18,36.762c1.808,0,2.84,1.291,2.84,3.098s-1.032,3.098-2.84,3.098c-1.807,0-2.84-1.291-2.84-3.098
      S78.373,36.762,80.18,36.762z M80.18,42.184c1.291,0,1.979-0.947,1.979-2.324s-0.688-2.324-1.979-2.324s-1.979,0.947-1.979,2.324
      S78.889,42.184,80.18,42.184z"/>
    <path fill="#1F1949" d="M87.491,40.203v0.086l1.205,1.895v0.602l-0.086,0.086h-0.344l-0.172-0.086l-1.549-2.41l-0.172-0.086
      h-1.377l-0.086,0.086v2.41l-0.086,0.086h-0.688l-0.086-0.086v-5.852l0.086-0.086h2.668c1.205,0,1.979,0.516,1.979,1.721
      C88.782,39.516,88.266,40.031,87.491,40.203z M86.803,37.621h-1.807l-0.086,0.086v1.723l0.086,0.086h1.807
      c0.774,0,1.119-0.258,1.119-0.947C87.921,37.881,87.577,37.621,86.803,37.621z"/>
    <path fill="#1F1949" d="M90.327,39.859c0,1.377,0.688,2.324,1.894,2.324c1.291,0,1.721-0.775,1.721-1.635l-0.086-0.088h-1.721
      l-0.086-0.086v-0.602l0.086-0.086h2.582l0.086,0.086v3.012l-0.086,0.086H94.2l-0.086-0.086l-0.086-0.516h-0.086
      c-0.43,0.43-0.947,0.688-1.721,0.688c-1.721,0-2.754-1.291-2.754-3.098s1.033-3.098,2.84-3.098c1.635,0,2.323,0.945,2.496,1.807
      l-0.086,0.086h-0.689l-0.086-0.086c-0.172-0.602-0.688-1.033-1.635-1.033C91.015,37.535,90.327,38.482,90.327,39.859z"/>
    <path fill="#1F1949" d="M99.961,42.871h-3.873l-0.086-0.086v-5.852l0.086-0.086h3.873l0.086,0.086v0.602l-0.086,0.086h-3.013
      l-0.086,0.086v1.637l0.086,0.086h2.841l0.086,0.086v0.602l-0.086,0.086h-2.841l-0.086,0.086v1.723l0.086,0.086h3.013l0.086,0.086
      v0.602L99.961,42.871z"/>
    <path fill="#1F1949" d="M103.314,42.957c-1.463,0-2.409-0.688-2.409-1.979l0.086-0.086h0.688l0.086,0.086
      c0,0.859,0.603,1.205,1.635,1.205c0.774,0,1.377-0.258,1.377-0.947c0-0.775-0.517-0.947-1.721-1.119
      c-1.205-0.172-1.979-0.688-1.979-1.721c0-0.775,0.603-1.635,2.151-1.635c1.291,0,2.237,0.516,2.237,1.807l-0.086,0.086h-0.688
      l-0.086-0.086c0-0.688-0.345-1.033-1.463-1.033c-0.774,0-1.205,0.346-1.205,0.861c0,0.688,0.431,0.861,1.635,1.033
      c1.205,0.172,2.065,0.602,2.065,1.807C105.637,42.184,104.949,42.957,103.314,42.957z"/>
    <path fill="#1F1949" d="M113.635,42.871h-0.773l-0.172-0.086l-2.927-4.475h-0.086v4.475l-0.086,0.086h-0.688l-0.086-0.086v-5.852
      l0.086-0.086h0.774l0.172,0.086l2.927,4.475h0.086v-4.475l0.086-0.086h0.688l0.086,0.086v5.852L113.635,42.871z"/>
    <path fill="#1F1949" d="M119.053,42.871h-3.873l-0.086-0.086v-5.852l0.086-0.086h3.873l0.086,0.086v0.602l-0.086,0.086h-3.012
      l-0.086,0.086v1.637l0.086,0.086h2.84l0.086,0.086v0.602l-0.086,0.086h-2.84l-0.086,0.086v1.723l0.086,0.086h3.012l0.086,0.086
      v0.602L119.053,42.871z"/>
    <path fill="#1F1949" d="M124.557,37.621h-1.807l-0.086,0.086v5.078l-0.086,0.086h-0.689l-0.086-0.086v-5.078l-0.086-0.086h-1.807
      l-0.086-0.086v-0.602l0.086-0.086h4.646l0.086,0.086v0.602L124.557,37.621z"/>
    <path fill="#1F1949" d="M129.889,37.621h-1.809l-0.086,0.086v5.078l-0.086,0.086h-0.688l-0.086-0.086v-5.078l-0.086-0.086h-1.809
      l-0.086-0.086v-0.602l0.086-0.086h4.648l0.086,0.086v0.602L129.889,37.621z"/>
    <path fill="#1F1949" d="M133.5,42.871h-2.582l-0.086-0.086v-5.852l0.086-0.086h2.41c0.945,0,1.807,0.43,1.807,1.635
      c0,0.602-0.344,1.033-0.775,1.205v0.086c0.518,0.172,0.947,0.602,0.947,1.377C135.307,42.441,134.445,42.871,133.5,42.871z
       M133.154,37.621h-1.377l-0.086,0.086v1.551l0.086,0.086h1.463c0.689,0,1.033-0.172,1.033-0.861
      C134.273,37.795,133.93,37.621,133.154,37.621z M133.24,40.117h-1.463l-0.086,0.086v1.809l0.086,0.086h1.637
      c0.688,0,1.031-0.26,1.031-0.947C134.445,40.375,134.102,40.117,133.24,40.117z"/>
    <path fill="#1F1949" d="M140.982,40.721c0,1.377-0.861,2.236-2.324,2.236s-2.322-0.859-2.322-2.236v-3.787l0.086-0.086h0.688
      l0.086,0.086v3.787c0,0.859,0.432,1.463,1.463,1.463c1.033,0,1.463-0.604,1.463-1.463v-3.787l0.088-0.086h0.688l0.086,0.086
      V40.721z"/>
    <path fill="#1F1949" d="M146.572,37.621h-1.807l-0.086,0.086v5.078l-0.086,0.086h-0.689l-0.086-0.086v-5.078l-0.086-0.086h-1.807
      l-0.086-0.086v-0.602l0.086-0.086h4.646l0.086,0.086v0.602L146.572,37.621z"/>
    <path fill="#1F1949" d="M148.291,42.871h-0.689l-0.086-0.086v-5.852l0.086-0.086h0.689l0.086,0.086v5.852L148.291,42.871z"/>
    <path fill="#1F1949" d="M154.141,42.871h-0.344l-0.172-0.086l-2.066-2.668h-0.086l-0.775,0.775l-0.086,0.172v1.721l-0.086,0.086
      h-0.688l-0.086-0.086v-5.852l0.086-0.086h0.688l0.086,0.086v2.84h0.086l2.84-2.84l0.174-0.086h0.258l0.086,0.086v0.602
      l-1.895,1.895v0.086l2.066,2.668v0.602L154.141,42.871z"/>
    <path fill="#1F1949" d="M159.473,42.871h-0.344l-0.172-0.086l-2.066-2.668h-0.086l-0.775,0.775l-0.086,0.172v1.721l-0.086,0.086
      h-0.688l-0.086-0.086v-5.852l0.086-0.086h0.688l0.086,0.086v2.84h0.086l2.84-2.84l0.174-0.086h0.258l0.086,0.086v0.602
      l-1.895,1.895v0.086l2.066,2.668v0.602L159.473,42.871z"/>
  </g>
</g>
</svg>
